<?xml version="1.0" encoding="UTF-8"?>
<svg id="Layer_1" data-name="Layer 1" xmlns="http://www.w3.org/2000/svg" version="1.1" viewBox="0 0 144 144">
  <defs>
    <style>
      .cls-1 {
        fill: #9b9b9b;
        stroke-width: 0px;
      }
    </style>
  </defs>
  <path class="cls-1" d="M138.2,52.4l-10-14.6c-1-1.5-2.7-2.3-4.4-2.3h-36.3s0,0,0,0h-14.6c-3.8,0-6.4,3.9-5,7.4l25.5,62.5c.8,2,2.8,3.3,5,3.3h16.5c.8,0,1.6-.3,2.4-.6,1.2-.6,2.1-1.5,2.6-2.8l18.9-47.8c.7-1.7.4-3.5-.6-5ZM116.9,54.9h0l-6.4,18.9-3.3,9.6-11.7-28.5h21.4,0Z"/>
  <path class="cls-1" d="M56.2,38.7c-.8-2-2.8-3.3-5-3.3h-16.5c-2.2,0-4.2,1.4-5,3.4L5.3,101.3c-1.4,3.5,1.2,7.3,5,7.3h33.6c3.8,0,6.4-3.9,5-7.4l-3.6-8.8c-.8-2-2.8-3.3-5-3.3h-7.5l9.7-28.5,18.4,44.7c.8,2,2.8,3.3,5,3.3h11c3.8,0,6.4-3.9,5-7.4l-25.5-62.5ZM32.7,89.1h0l4.3-12.7-4.3,12.7ZM42.4,60.6h0s0,0,0,0h0Z"/>
</svg>